<svg xmlns="http://www.w3.org/2000/svg" xmlns:xlink="http://www.w3.org/1999/xlink" width="29" height="32.022216796875" viewBox="0 0 29 32.022216796875" fill="none">
<path d="M14.5124 23.5852C18.1828 23.5852 21.1582 20.2997 21.1582 16.2468C21.1582 12.194 18.1828 8.90845 14.5124 8.90845C10.842 8.90845 7.86658 12.194 7.86658 16.2468C7.86658 20.2997 10.842 23.5852 14.5124 23.5852Z" stroke="rgba(114, 173, 184, 1)" stroke-width="1.3333333333333333" stroke-linejoin="round"  >
</path>
<path    stroke="rgba(114, 173, 184, 1)" stroke-width="1.3333333333333333"  stroke-linecap="round"  d="M23.5386 6.01074L22.0521 7.6615">
</path>
<path    stroke="rgba(114, 173, 184, 1)" stroke-width="1.3333333333333333"  stroke-linecap="round"  d="M6.68661 24.5137L5.44995 25.887">
</path>
<path    stroke="rgba(114, 173, 184, 1)" stroke-width="1.3333333333333333"  stroke-linecap="round"  d="M14.5 27.5879L14.5 29.5893">
</path>
<path    stroke="rgba(114, 173, 184, 1)" stroke-width="1.3333333333333333"  stroke-linecap="round"  d="M26.5832 15.5798L24.1665 15.5798">
</path>
<path    stroke="rgba(114, 173, 184, 1)" stroke-width="1.3333333333333333"  stroke-linecap="round"  d="M22.6758 24.2407L24.1665 25.8868">
</path>
<path   fill-rule="evenodd"  fill="#72ADB8"  d="M14.5124 11.5769C12.1767 11.5769 10.2832 13.6677 10.2832 16.2468C10.2832 18.8259 12.1767 20.9167 14.5124 20.9167">
</path>
<path    stroke="rgba(114, 173, 184, 1)" stroke-width="1.3333333333333333"  stroke-linecap="round"  d="M2.41675 16.2468L4.83342 16.2468">
</path>
<path    stroke="rgba(114, 173, 184, 1)" stroke-width="1.3333333333333333"  stroke-linecap="round"  d="M6.06848 6.01074L7.30871 7.38019">
</path>
<path    stroke="rgba(114, 173, 184, 1)" stroke-width="1.3333333333333333"  stroke-linecap="round"  d="M14.5 2.2373L14.5 4.90581">
</path>
</svg>
