<?xml version="1.0" standalone="no"?><!DOCTYPE svg PUBLIC "-//W3C//DTD SVG 1.1//EN" "http://www.w3.org/Graphics/SVG/1.1/DTD/svg11.dtd"><svg t="1735123624482" class="icon" viewBox="0 0 1024 1024" version="1.1" xmlns="http://www.w3.org/2000/svg" p-id="10792" xmlns:xlink="http://www.w3.org/1999/xlink" width="200" height="200"><path d="M599.433846 580.371692c75.224615 30.168615 132.608 98.067692 148.48 182.587077a20.755692 20.755692 0 0 1-16.029538 24.339693 20.322462 20.322462 0 0 1-23.748923-16.46277c-17.998769-95.586462-100.036923-165.769846-196.135385-165.769846-96.098462 0-178.136615 70.183385-196.135385 165.809231a20.322462 20.322462 0 0 1-23.748923 16.423385 20.755692 20.755692 0 0 1-16.068923-24.339693c15.911385-84.48 73.334154-152.418462 148.48-182.587077a184.438154 184.438154 0 0 1-91.687384-160.374154C332.8 318.542769 413.026462 236.307692 512 236.307692c98.973538 0 179.2 82.235077 179.2 183.689846 0 68.923077-37.021538 128.945231-91.766154 160.374154z m51.2-160.374154c0-78.493538-62.070154-142.139077-138.633846-142.139076s-138.633846 63.645538-138.633846 142.178461c0 78.493538 62.070154 142.099692 138.633846 142.099692s138.633846-63.606154 138.633846-142.139077z" fill="#72adb8" p-id="10793"></path><path d="M519.68 19.692308C243.554462 19.692308 19.692308 243.554462 19.692308 519.68S243.554462 1019.667692 519.68 1019.667692 1019.667692 795.805538 1019.667692 519.68 795.805538 19.692308 519.68 19.692308z m0 39.384615c254.424615 0 460.603077 206.217846 460.603077 460.603077 0 254.424615-206.217846 460.603077-460.603077 460.603077C265.294769 980.283077 59.076923 774.065231 59.076923 519.68 59.076923 265.294769 265.294769 59.076923 519.68 59.076923z" fill="#72adb8" p-id="10794"></path></svg>