<svg xmlns="http://www.w3.org/2000/svg" xmlns:xlink="http://www.w3.org/1999/xlink" width="32" height="35.334716796875" viewBox="0 0 32 35.334716796875" fill="none">
<path    stroke="rgba(114, 173, 184, 1)" stroke-width="1.3333333333333333" stroke-linejoin="round" stroke-linecap="round"  d="M18.8572 27.2373L26.4762 27.2373M28 30.918L26.4762 27.2373L28 30.918ZM17.3334 30.918L18.8572 27.2373L17.3334 30.918ZM18.8572 27.2373L22.6667 17.6675L26.4762 27.2373L18.8572 27.2373Z">
</path>
<path    stroke="rgba(114, 173, 184, 1)" stroke-width="1.3333333333333333" stroke-linejoin="round" stroke-linecap="round"  d="M10.6666 4.41675L11.3333 6.62517">
</path>
<path    stroke="rgba(114, 173, 184, 1)" stroke-width="1.3333333333333333" stroke-linejoin="round" stroke-linecap="round"  d="M4 8.09766L18.6667 8.09766">
</path>
<path    stroke="rgba(114, 173, 184, 1)" stroke-width="1.3333333333333333" stroke-linejoin="round" stroke-linecap="round"  d="M6.66663 11.7783C6.66663 11.7783 7.85963 16.3872 10.8421 18.9477C13.8245 21.5082 18.6666 23.5566 18.6666 23.5566">
</path>
<path    stroke="rgba(114, 173, 184, 1)" stroke-width="1.3333333333333333" stroke-linejoin="round" stroke-linecap="round"  d="M16 8.09766C16 8.09766 14.807 14.1468 11.8245 17.5074C8.84213 20.8681 4 23.5566 4 23.5566">
</path>
</svg>
